<svg width="32" height="32" viewBox="0 0 32 32" fill="none" xmlns="http://www.w3.org/2000/svg">
<path fill-rule="evenodd" clip-rule="evenodd" d="M24.7864 9.8531C25.5154 9.12413 25.5154 7.94222 24.7864 7.21324C24.0575 6.48426 22.8756 6.48426 22.1466 7.21324L15.9998 13.36L9.8531 7.21324C9.12413 6.48426 7.94222 6.48426 7.21324 7.21324C6.48426 7.94222 6.48426 9.12413 7.21324 9.8531L13.36 15.9998L7.21324 22.1466C6.48426 22.8756 6.48426 24.0575 7.21324 24.7864C7.94222 25.5154 9.12413 25.5154 9.8531 24.7864L15.9998 18.6397L22.1466 24.7864C22.8756 25.5154 24.0575 25.5154 24.7864 24.7864C25.5154 24.0575 25.5154 22.8756 24.7864 22.1466L18.6397 15.9998L24.7864 9.8531Z" fill="#823B00"/>
</svg>
