<svg width="24" height="24" viewBox="0 0 24 24" fill="none" xmlns="http://www.w3.org/2000/svg">
<path fill-rule="evenodd" clip-rule="evenodd" d="M3.23638 12C3.33352 12.1679 3.46232 12.3818 3.62186 12.6289C4.03166 13.2634 4.63853 14.1072 5.42642 14.9476C7.0184 16.6457 9.24417 18.2222 12.0002 18.2222C14.7562 18.2222 16.9819 16.6457 18.5739 14.9476C19.3618 14.1072 19.9687 13.2634 20.3785 12.6289C20.538 12.3818 20.6668 12.1679 20.7639 12C20.6668 11.8321 20.538 11.6182 20.3785 11.3711C19.9687 10.7366 19.3618 9.8928 18.5739 9.05239C16.9819 7.35427 14.7562 5.77778 12.0002 5.77778C9.24417 5.77778 7.0184 7.35427 5.42642 9.05239C4.63853 9.8928 4.03166 10.7366 3.62186 11.3711C3.46232 11.6182 3.33352 11.8321 3.23638 12ZM21.7779 12C22.573 11.6025 22.5728 11.6022 22.5727 11.6018L22.5712 11.599L22.5682 11.5929L22.5581 11.5732C22.5496 11.5567 22.5376 11.5336 22.5222 11.5044C22.4912 11.446 22.4464 11.3629 22.3877 11.2587C22.2706 11.0503 22.0981 10.7569 21.8719 10.4066C21.4205 9.70783 20.7496 8.77386 19.8709 7.8365C18.1295 5.97906 15.4664 4 12.0002 4C8.53393 4 5.87081 5.97906 4.12946 7.8365C3.25068 8.77386 2.57978 9.70783 2.12846 10.4066C1.90225 10.7569 1.72976 11.0503 1.61258 11.2587C1.55396 11.3629 1.50909 11.446 1.47817 11.5044C1.4627 11.5336 1.45072 11.5567 1.44224 11.5732L1.43215 11.5929L1.42909 11.599L1.42805 11.6011C1.42788 11.6014 1.42734 11.6025 2.22238 12L1.42734 11.6025C1.30222 11.8527 1.30222 12.1473 1.42734 12.3975L2.22238 12C1.42734 12.3975 1.42718 12.3972 1.42734 12.3975L1.42909 12.401L1.43215 12.4071L1.44224 12.4268C1.45072 12.4433 1.4627 12.4664 1.47817 12.4956C1.50909 12.554 1.55396 12.6371 1.61258 12.7413C1.72976 12.9496 1.90225 13.2431 2.12846 13.5934C2.57978 14.2922 3.25068 15.2261 4.12946 16.1635C5.87081 18.0209 8.53393 20 12.0002 20C15.4664 20 18.1295 18.0209 19.8709 16.1635C20.7496 15.2261 21.4205 14.2922 21.8719 13.5934C22.0981 13.2431 22.2706 12.9496 22.3877 12.7413C22.4464 12.6371 22.4912 12.554 22.5222 12.4956C22.5376 12.4664 22.5496 12.4433 22.5581 12.4268L22.5682 12.4071L22.5712 12.401L22.5723 12.3989C22.5724 12.3986 22.573 12.3975 21.7779 12ZM21.7779 12L22.573 12.3975C22.6981 12.1473 22.6978 11.8521 22.5727 11.6018L21.7779 12Z" fill="#FF7506"/>
<path fill-rule="evenodd" clip-rule="evenodd" d="M12 9.8667C10.8218 9.8667 9.8667 10.8218 9.8667 12C9.8667 13.1782 10.8218 14.1333 12 14.1333C13.1782 14.1333 14.1333 13.1782 14.1333 12C14.1333 10.8218 13.1782 9.8667 12 9.8667ZM7.7334 12C7.7334 9.64362 9.64362 7.7334 12 7.7334C14.3564 7.7334 16.2666 9.64362 16.2666 12C16.2666 14.3564 14.3564 16.2666 12 16.2666C9.64362 16.2666 7.7334 14.3564 7.7334 12Z" fill="#FF7506"/>
</svg>
